#!OML:ASF H:\MichaelJackson\Top Level 1\Subject 1\Session 1\male.ASF
:FULLY-SPECIFIED
:DEGREES
696
root -10.2103 16.1459 30.1964 -350.464 4.02263 0.487462
lowerback -2.45563 -2.62161 5.42837
upperback -1.52122 -3.61631 -3.69142
thorax -0.776756 -1.89376 -6.94139
lowerneck -8.87076 0.651193 6.57792
upperneck 3.06107 0.229553 -1.94884
head 2.56127 0.13708 -1.78205
rclavicle 1.0635e-014 -4.77083e-015
rhumerus 17.0048 -25.7713 1.21001
rradius 38.2256
rwrist -18.2117
rhand 12.4441 -28.3891
rfingers 7.12502
rthumb 37.4406 -54.3384
lclavicle 1.0635e-014 -4.77083e-015
lhumerus -50.7797 -36.7515 116.226
lradius 42.2046
lwrist 20.8189
lhand 39.411 34.0886
lfingers 7.12502
lthumb 61.9051 45.7001
rfemur -28.5901 -0.53293 3.29663
rtibia 43.7271
rfoot -28.086 4.63833
rtoes -32.9877
lfemur 0.624867 -4.72989 3.17836
ltibia 5.02857
lfoot -26.7145 -9.72966
ltoes -28.5038
697
root -10.2023 16.156 30.1887 -350.519 3.95971 0.45509
lowerback -2.35786 -2.52096 5.44655
upperback -1.52594 -3.47761 -3.66472
thorax -0.813485 -1.82524 -6.91838
lowerneck -8.94896 0.61233 6.56784
upperneck 3.14397 0.169657 -1.88736
head 2.60041 0.110497 -1.76415
rclavicle 1.00386e-014 -1.66979e-014
rhumerus 17.132 -26.088 0.966891
rradius 37.7858
rwrist -19.8133
rhand 10.9499 -29.046
rfingers 7.12502
rthumb 36.0267 -55.356
lclavicle 1.00386e-014 -1.66979e-014
lhumerus -50.6732 -36.8731 116.376
lradius 42.1225
lwrist 20.3605
lhand 39.4977 33.9362
lfingers 7.12502
lthumb 61.9775 45.4581
rfemur -28.4777 -0.41083 3.30624
rtibia 43.5271
rfoot -27.9704 4.59887
rtoes -32.9787
lfemur 0.713068 -4.69015 3.13242
ltibia 4.97829
lfoot -26.504 -9.58691
ltoes -28.5056
698
root -10.1928 16.1656 30.1808 -350.58 3.936 0.404539
lowerback -2.23111 -2.42146 5.48389
upperback -1.53506 -3.33949 -3.63352
thorax -0.872084 -1.75808 -6.90031
lowerneck -9.07032 0.566284 6.56935
upperneck 3.23427 0.0949916 -1.81462
head 2.64958 0.0772122 -1.74584
rclavicle 2.37548e-014 1.03368e-014
rhumerus 17.2597 -26.6382 0.649497
rradius 37.4102
rwrist -21.4422
rhand 9.36632 -29.6709
rfingers 7.12502
rthumb 34.5251 -56.3366
lclavicle 2.37548e-014 1.03368e-014
lhumerus -50.5637 -36.9642 116.512
lradius 42.037
lwrist 19.9009
lhand 39.5898 33.81
lfingers 7.12502
lthumb 62.0542 45.2361
rfemur -28.3576 -0.318629 3.3319
rtibia 43.3435
rfoot -27.8349 4.60948
rtoes -32.8528
lfemur 0.737724 -4.68597 3.09745
ltibia 5.03576
lfoot -26.3541 -9.41947
ltoes -28.5218
699
root -10.1823 16.1743 30.173 -350.638 3.95934 0.348265
lowerback -2.0919 -2.32554 5.52746
upperback -1.54885 -3.20556 -3.60173
thorax -0.943542 -1.69372 -6.88489
lowerneck -9.21487 0.512827 6.57723
upperneck 3.31449 0.00729492 -1.73131
head 2.69923 0.0377839 -1.72601
rclavicle 1.16289e-014 -2.06736e-014
rhumerus 17.3892 -27.387 0.267507
rradius 37.1065
rwrist -22.8916
rhand 7.85866 -30.1746
rfingers 7.12502
rthumb 33.0926 -57.1552
lclavicle 1.16289e-014 -2.06736e-014
lhumerus -50.4757 -37.0502 116.644
lradius 41.9698
lwrist 19.5079
lhand 39.6632 33.7424
lfingers 7.12502
lthumb 62.1154 45.0918
rfemur -28.2373 -0.25409 3.36031
rtibia 43.1827
rfoot -27.6807 4.65257
rtoes -32.6204
lfemur 0.697182 -4.72269 3.0701
ltibia 5.17392
lfoot -26.2644 -9.23959
ltoes -28.546
700
root -10.1714 16.1819 30.1657 -350.681 4.03688 0.29724
lowerback -1.96247 -2.23722 5.56772
upperback -1.56776 -3.08198 -3.57211
thorax -1.01642 -1.63477 -6.87065
lowerneck -9.37181 0.454468 6.59329
upperneck 3.37923 -0.08895 -1.64772
head 2.7458 -0.00594521 -1.70808
rclavicle 2.0276e-014 -1.19271e-014
rhumerus 17.5072 -28.2309 -0.126873
rradius 36.8448
rwrist -23.9417
rhand 6.60204 -30.4645
rfingers 7.12502
rthumb 31.8968 -57.6911
lclavicle 2.0276e-014 -1.19271e-014
lhumerus -50.4211 -37.1504 116.781
lradius 41.9216
lwrist 19.2258
lhand 39.7062 33.7361
lfingers 7.12502
lthumb 62.1512 45.0404
rfemur -28.125 -0.215224 3.37999
rtibia 43.0485
rfoot -27.5069 4.71183
rtoes -32.2878
lfemur 0.599616 -4.80388 3.05116
ltibia 5.34484
lfoot -26.2184 -9.07305
ltoes -28.5639
701
root -10.1604 16.1881 30.1595 -350.703 4.17416 0.26147
lowerback -1.86314 -2.15969 5.59953
upperback -1.59009 -2.97392 -3.54699
thorax -1.07825 -1.58333 -6.85792
lowerneck -9.52171 0.391871 6.60594
upperneck 3.41891 -0.190007 -1.56342
head 2.78241 -0.0524303 -1.68932
rclavicle 2.06736e-014 8.74653e-015
rhumerus 17.549 -28.9966 -0.409058
rradius 36.5959
rwrist -24.3902
rhand 5.76828 -30.4532
rfingers 7.12502
rthumb 31.1025 -57.8351
lclavicle 2.06736e-014 8.74653e-015
lhumerus -50.407 -37.2819 116.93
lradius 41.8873
lwrist 19.082
lhand 39.7091 33.765
lfingers 7.12502
lthumb 62.1536 45.0663
rfemur -28.023 -0.20784 3.38092
rtibia 42.942
rfoot -27.3167 4.77463
rtoes -31.8646
lfemur 0.464124 -4.93343 3.04144
ltibia 5.49092
lfoot -26.1982 -8.94229
ltoes -28.5652
702
root -10.1492 16.1926 30.1544 -350.702 4.36993 0.245074
lowerback -1.80579 -2.09664 5.62378
upperback -1.61395 -2.88696 -3.52684
thorax -1.12137 -1.54185 -6.84802
lowerneck -9.64563 0.32958 6.6143
upperneck 3.42542 -0.287651 -1.48691
head 2.80309 -0.0980822 -1.67171
rclavicle 1.13307e-014 1.66979e-014
rhumerus 17.4488 -29.4787 -0.460076
rradius 36.3601
rwrist -24.264
rhand 5.41006 -30.1748
rfingers 7.12502
rthumb 30.761 -57.6215
lclavicle 1.13307e-014 1.66979e-014
lhumerus -50.4337 -37.436 117.084
lradius 41.8743
lwrist 19.0634
lhand 39.6862 33.8196
lfingers 7.12502
lthumb 62.1346 45.1449
rfemur -27.9308 -0.224939 3.3584
rtibia 42.862
rfoot -27.1123 4.82812
rtoes -31.3558
lfemur 0.308483 -5.11012 3.04249
ltibia 5.57554
lfoot -26.1891 -8.85902
ltoes -28.5496
